# 3ds Max Wavefront OBJ Exporter v0.99 - (c)2007 guruware
# ?????:25.12.2023 22:40:32

mtllib crystal.mtl

#
# object Geoset_4
#

v  3.0764 3.2658 0.4927
v  3.0876 3.3037 0.4848
v  3.0815 3.3011 0.5500
v  1.7700 3.7648 1.0870
v  1.4987 3.4816 0.9225
v  1.8376 3.4277 0.8321
v  1.9897 3.5864 0.9243
v  1.9790 3.6173 1.3706
v  2.1069 3.5038 1.0833
v  2.1509 3.4417 1.4415
v  2.2033 3.4053 1.1230
v  2.2123 3.3725 1.4698
v  2.2377 3.3666 1.1389
v  2.4805 3.0189 1.4260
v  2.3880 3.1683 1.1143
v  2.3753 2.6248 1.4637
v  2.3291 2.9473 1.1355
v  2.6843 2.4897 1.3722
v  2.5023 2.8716 1.0842
v  2.7529 2.2286 1.1427
v  2.5408 2.7252 0.9555
v  2.9968 3.0435 0.9435
v  2.6775 3.1821 0.8438
v  3.0527 3.2884 0.8613
v  2.7089 3.3194 0.7977
v  3.0432 3.4090 0.7730
v  2.7035 3.3870 0.7483
v  2.7250 3.3265 0.6232
v  2.7221 3.3067 0.5911
v  2.6631 2.8619 0.1520
v  2.4904 3.0803 0.4001
v  2.5934 2.8934 0.0167
v  2.4514 3.0979 0.3243
v  2.4151 3.0472 -0.0361
v  2.3514 3.1842 0.2946
v  2.1646 3.2820 -0.0355
v  2.2109 3.3158 0.2950
v  2.0684 3.0481 -0.0102
v  2.1570 3.1846 0.3092
v  1.9360 2.6028 0.2418
v  2.0828 2.9350 0.4504
v  1.8689 2.2885 0.5253
v  2.0452 2.7588 0.6094
v  1.7439 2.2551 0.7402
v  1.9751 2.7400 0.7299
v  1.7911 2.1369 1.0518
v  2.0015 2.6738 0.9046
v  1.6127 2.9759 0.8986
v  1.6259 2.8142 1.0963
v  1.9089 3.0535 0.9295
v  1.9015 3.1442 0.8187
v  1.4984 3.3337 0.9183
v  1.8375 3.3448 0.8297
v  2.4074 4.6039 1.0363
v  2.4189 4.6017 1.0405
v  2.4175 4.6184 1.0311
v  2.1464 5.4957 -0.0239
v  1.9364 5.4147 0.0769
v  2.1437 4.8468 0.3568
v  2.2504 4.8880 0.3056
v  1.9992 5.3810 0.2792
v  2.1756 4.8296 0.4597
v  2.0684 5.5138 0.4017
v  2.2108 4.8971 0.5219
v  2.0731 5.4634 0.4835
v  2.2131 4.8715 0.5635
v  2.1216 5.3906 0.5357
v  2.2378 4.8345 0.5900
v  2.0360 5.2582 0.5842
v  2.1943 4.7672 0.6147
v  1.9022 5.0002 0.6398
v  2.1263 4.6361 0.6430
v  1.9722 4.9049 0.7576
v  2.1619 4.5876 0.7028
v  2.2209 4.6394 0.9672
v  2.2883 4.4527 0.8094
v  2.3630 4.5012 1.0484
v  2.3605 4.3825 0.8506
v  2.3831 4.4347 0.8445
v  2.3882 4.4421 0.8418
v  2.7534 4.8074 0.7739
v  2.5589 4.5381 0.7111
v  2.1990 5.4752 -0.0128
v  2.2771 4.8775 0.3113
v  2.2494 5.1616 -0.0228
v  2.3028 4.7181 0.3062
v  2.3551 4.6697 -0.0348
v  2.3565 4.4681 0.3001
v  2.4947 4.7934 -0.0029
v  2.4274 4.5310 0.3163
v  2.6802 4.7373 0.2039
v  2.5217 4.5025 0.4214
v  2.8235 4.6020 0.7342
v  2.5945 4.4337 0.6909
v  2.8846 4.3476 0.6820
v  2.6256 4.3044 0.6644
v  2.8576 4.5877 0.6011
v  2.6119 4.4264 0.6233
v  2.6798 5.0871 0.3875
v  2.5215 4.6802 0.5147
v  2.7422 4.9330 0.3115
v  2.5532 4.6019 0.4761
v  2.6257 3.0467 -0.0519
v  2.9009 4.5694 0.4319
v  2.5957 4.3664 -0.0175
v  3.0463 3.2856 0.9301
v  2.0297 4.2735 -0.1022
v  1.9048 3.0485 0.0020
v  2.6718 3.3605 1.4413
v  2.7890 4.6165 0.8685
v  1.6620 3.1346 0.3697
v  1.7201 4.5332 0.0562
v  1.6329 4.8359 0.5254
v  1.9342 4.6940 0.8611
# 114 vertices

vn 0.8824 -0.3412 0.3333
vn 0.9529 -0.2941 0.0745
vn 0.9922 0.0980 -0.0745
vn 0.1216 0.8039 0.5843
vn -0.6078 0.0431 0.7882
vn -0.7098 -0.0353 0.7098
vn -0.7412 -0.0431 0.6706
vn -0.7961 -0.0510 0.6000
vn -0.8824 0.3882 -0.2706
vn -0.4667 -0.5843 0.6627
vn -0.9294 0.1216 0.3490
vn 0.1686 -0.9451 0.2784
vn 0.1373 -0.9294 0.3412
vn 0.0980 -0.8039 0.5843
vn 0.0275 0.4353 0.8980
vn 0.0431 0.5216 0.8510
vn 0.1137 0.7020 0.7020
vn -0.6627 0.1765 0.7255
vn -0.6706 0.1686 0.7176
vn 0.9216 -0.0902 0.3882
vn 0.9294 -0.1137 0.3412
vn 0.9373 -0.1373 0.3255
vn 0.8196 0.4196 0.3804
vn 0.8588 -0.2863 0.4196
vn -0.2549 0.6235 -0.7412
vn 0.2549 0.9686 -0.0275
vn 0.2549 0.9686 0.0275
vn -0.9373 -0.1765 0.2941
vn -0.2784 -0.3020 0.9137
vn 0.8902 -0.2235 0.3882
vn 0.9765 0.0902 0.1922
vn 0.8980 0.3961 -0.1922
vn 0.8980 0.2863 0.3412
vn 0.7725 0.5216 -0.3647
vn -0.6706 0.1765 0.7176
vn 0.4039 0.4510 0.7961
vn -0.5922 0.7020 0.3882
vn 0.7333 -0.5686 0.3569
vn -0.0745 0.7412 0.6706
vn -0.6863 -0.7255 0.0588
vn 0.2078 0.9765 -0.0353
vn -0.5294 0.8431 0.1216
vn -0.5922 -0.7804 0.1843
vn -0.7412 0.2157 0.6392
vn -0.3412 -0.4118 0.8510
vn -0.1765 0.3333 0.9216
vn 0.6471 0.4824 0.5922
vn -0.4980 0.8667 0.0275
vn -0.2706 0.9059 -0.3333
vn 0.0824 0.9294 -0.3490
vn 0.2235 0.8431 -0.4902
vn 0.2157 0.8431 -0.4902
vn 0.9451 -0.2549 -0.2157
vn 0.8275 -0.5529 -0.0824
vn 0.9686 0.0902 -0.2392
vn 0.7961 -0.5922 -0.1059
vn 0.2941 0.9451 -0.1529
vn 0.1765 0.9765 -0.1216
vn 0.8510 -0.0824 -0.5216
vn 0.8039 -0.2784 -0.5294
vn 0.7490 -0.3490 -0.5608
vn -0.9059 -0.2078 -0.3647
vn -0.8275 -0.3020 -0.4667
vn -0.6706 -0.4431 -0.5922
vn 0.0039 0.8824 -0.4745
vn 0.9843 0.0510 -0.1608
vn 0.9686 0.1216 -0.2078
vn -0.6627 0.3882 -0.6471
vn -0.3725 0.5373 -0.7569
vn 0.0353 -0.9765 -0.2000
vn 0.0353 -0.9765 -0.2078
vn -0.1137 0.9451 -0.3020
vn -0.1451 0.9294 -0.3490
vn -0.7098 -0.7020 -0.0588
vn -0.8902 -0.2157 -0.4039
vn 0.9373 -0.2235 0.2784
vn 0.8667 -0.4196 -0.2706
vn -0.7333 0.3255 -0.6000
vn 0.7412 0.6235 0.2471
vn 0.5922 0.2627 -0.7647
vn -0.3647 0.8275 -0.4275
vn -0.2941 0.9216 -0.2392
vn -0.2314 0.8588 -0.4667
vn -0.2314 0.8588 -0.4588
vn 0.9216 -0.3647 -0.1216
vn 0.9529 0.2235 -0.1843
vn 0.9373 0.2078 -0.2784
vn 0.9216 0.0902 -0.3647
vn -0.0039 0.5843 -0.8118
vn 0.0902 0.6078 -0.7882
vn 0.0667 -0.8824 -0.4667
vn -0.5843 0.6549 -0.4902
vn 0.4824 -0.7725 -0.4039
vn 0.4980 -0.7725 -0.3961
vn 0.3412 0.9373 -0.0510
vn 0.3176 0.9451 -0.0196
vn 0.0980 0.7412 -0.6627
vn 0.7804 -0.4902 0.3804
vn 0.4118 -0.8824 0.2157
vn 0.9529 -0.1922 -0.2392
vn 0.9765 0.1137 -0.1686
vn 0.5529 -0.7098 0.4353
vn -0.0510 -0.9922 0.0824
vn 0.5216 -0.8510 -0.0667
vn 0.7647 -0.6235 -0.1686
vn 0.9373 -0.1529 -0.3098
vn 0.9373 0.1922 -0.2941
vn 0.9608 0.2078 -0.1843
vn 0.9373 0.3490 -0.0353
vn 0.9922 0.0902 -0.0275
vn -0.0196 -1.0000 0.0431
vn -0.2157 -0.9765 0.0353
vn 0.1529 -0.9843 -0.0588
vn 0.5137 -0.8431 -0.1529
vn -0.4980 -0.8353 0.2314
vn -0.0745 -0.9686 0.2392
vn -0.6863 -0.6235 0.3804
vn 0.9373 0.0510 -0.3569
vn -0.1059 -0.9922 -0.0980
vn 0.2784 -0.9529 -0.0824
vn 0.2314 -0.9686 -0.0667
vn 0.8980 0.4118 0.1608
vn 0.8824 0.4431 0.1529
vn 0.7176 0.6941 0.0980
vn 0.4667 0.8667 -0.1608
vn 0.0980 0.9922 0.0667
vn 0.2863 0.9608 -0.0118
vn -0.2078 0.8980 -0.3882
vn -0.1765 0.9137 -0.3725
vn 0.0667 0.8980 -0.4275
vn 0.0667 0.9529 -0.2941
vn 0.7176 0.6314 -0.2941
vn 0.6314 0.6392 -0.4353
vn 0.9529 0.2157 -0.2235
vn -0.8039 -0.5137 0.2941
vn -0.9059 -0.3961 0.1373
vn -0.7725 -0.6314 -0.0588
vn -0.7490 -0.5608 -0.3490
vn -0.9137 0.2392 -0.3333
vn -0.8039 0.1059 -0.5843
vn -0.9529 -0.1843 0.2392
vn -0.9686 -0.1294 0.2000
vn -0.9686 -0.2314 0.1137
vn -0.9843 -0.0431 0.1843
vn -0.9686 0.0588 0.2392
vn -0.9922 -0.0510 -0.0824
vn -0.6863 0.6706 -0.2784
vn -0.4510 0.7961 -0.3961
vn -0.5686 0.6941 -0.4431
vn -0.5922 0.6392 -0.4902
vn -0.8431 0.2157 -0.4902
vn -0.4902 0.7490 -0.4510
vn -0.8510 0.3882 -0.3490
vn 0.4745 0.8824 -0.0588
# 154 vertex normals

vt 0.8765 -0.3169 0.0000
vt 0.8770 -0.3154 0.0000
vt 0.8721 -0.3174 0.0000
vt 0.7300 -0.3032 0.0000
vt 0.7021 -0.3184 0.0000
vt 0.7603 -0.3213 0.0000
vt 0.7715 -0.3350 0.0000
vt 0.7759 -0.3403 0.0000
vt 0.7939 -0.3535 0.0000
vt 0.7861 -0.3711 0.0000
vt 0.8081 -0.3745 0.0000
vt 0.8281 -0.3823 0.0000
vt 0.8423 -0.3423 0.0000
vt 0.8486 -0.3286 0.0000
vt 0.8550 -0.3179 0.0000
vt 0.9165 -0.3442 0.0000
vt 0.9287 -0.3442 0.0000
vt 0.9478 -0.3340 0.0000
vt 0.9658 -0.3154 0.0000
vt 0.9731 -0.3296 0.0000
vt 0.9668 -0.3516 0.0000
vt 0.6650 -0.3726 0.0000
vt 0.6406 -0.3555 0.0000
vt 0.6855 -0.3789 0.0000
vt 0.7061 -0.3848 0.0000
vt 0.6968 -0.3462 0.0000
vt 0.7104 -0.3535 0.0000
vt 0.6992 -0.3296 0.0000
vt 0.8047 -0.2524 0.0000
vt 0.8062 -0.2529 0.0000
vt 0.8062 -0.2505 0.0000
vt 0.6714 -0.1323 0.0000
vt 0.6821 -0.1396 0.0000
vt 0.7173 -0.1338 0.0000
vt 0.7456 -0.1221 0.0000
vt 0.7544 -0.1299 0.0000
vt 0.7607 -0.1406 0.0000
vt 0.7554 -0.1567 0.0000
vt 0.7383 -0.1914 0.0000
vt 0.7568 -0.2026 0.0000
vt 0.7861 -0.2437 0.0000
vt 0.8003 -0.2593 0.0000
vt 0.8413 -0.2188 0.0000
vt 0.9258 -0.1025 0.0000
vt 0.9307 -0.0991 0.0000
vt 0.9321 -0.1382 0.0000
vt 0.9424 -0.2012 0.0000
vt 0.9243 -0.1948 0.0000
vt 0.8931 -0.2124 0.0000
vt 0.8540 -0.2412 0.0000
vt 0.8589 -0.2563 0.0000
vt 0.8643 -0.2393 0.0000
vt 0.8569 -0.1738 0.0000
vt 0.8721 -0.1929 0.0000
vt 0.9326 -0.3364 0.0000
vt 0.8774 -0.2363 0.0000
vt 0.9326 -0.2505 0.0000
vt 0.8438 -0.3311 0.0000
vt 0.9883 -0.2280 0.0000
vt 0.9854 -0.3276 0.0000
vt 0.8062 -0.3374 0.0000
vt 0.8433 -0.2437 0.0000
vt 0.6240 -0.3330 0.0000
vt 0.6592 -0.3394 0.0000
vt 0.6196 -0.2324 0.0000
vt 0.6582 -0.2119 0.0000
vt 0.7021 -0.2129 0.0000
vt 0.7573 -0.2300 0.0000
# 68 texture coords

o Geoset_4
g Geoset_4
usemtl Geoset_4Mat
s off
f 1/1/1 2/2/2 3/3/3 
f 4/4/4 5/5/4 6/5/4 
f 6/5/4 7/4/4 4/4/4 
f 8/6/5 4/4/5 7/4/5 
f 7/4/5 9/6/5 8/6/5 
f 10/7/6 8/6/6 9/6/6 
f 9/6/6 11/7/6 10/7/6 
f 12/8/7 10/7/7 11/7/7 
f 11/7/7 13/8/7 12/8/7 
f 14/9/8 12/8/8 13/8/8 
f 13/8/8 15/9/8 14/9/8 
f 16/10/9 14/9/9 15/9/9 
f 15/9/9 17/10/9 16/10/9 
f 18/11/10 16/10/10 17/10/10 
f 17/10/10 19/11/10 18/11/10 
f 20/12/11 18/11/11 19/11/11 
f 19/11/11 21/12/11 20/12/11 
f 22/13/12 20/12/12 21/12/12 
f 21/12/12 23/13/12 22/13/12 
f 24/14/13 22/13/13 23/13/13 
f 23/13/13 25/14/13 24/14/13 
f 26/15/14 24/14/14 25/14/14 
f 25/14/14 27/15/14 26/15/14 
f 3/3/15 26/15/15 27/15/15 
f 27/15/15 28/3/15 3/3/15 
f 1/1/16 3/3/16 28/3/16 
f 28/3/16 29/1/16 1/1/16 
f 30/16/17 1/1/17 29/1/17 
f 29/1/17 31/16/17 30/16/17 
f 32/17/18 30/16/18 31/16/18 
f 31/16/18 33/17/18 32/17/18 
f 34/18/19 32/17/19 33/17/19 
f 33/17/19 35/18/19 34/18/19 
f 36/19/19 34/18/19 35/18/19 
f 35/18/19 37/19/19 36/19/19 
f 38/20/20 36/19/20 37/19/20 
f 37/19/20 39/20/20 38/20/20 
f 40/21/21 38/20/21 39/20/21 
f 39/20/21 41/21/21 40/21/21 
f 42/22/22 40/23/22 41/23/22 
f 41/23/22 43/22/22 42/22/22 
f 44/24/23 42/22/23 43/22/23 
f 43/22/23 45/24/23 44/24/23 
f 46/25/24 44/24/24 45/24/24 
f 45/24/24 47/25/24 46/25/24 
f 48/26/25 49/27/25 50/27/25 
f 50/27/25 51/26/25 48/26/25 
f 52/28/26 48/26/26 51/26/26 
f 51/26/26 53/28/26 52/28/26 
f 5/5/27 52/28/27 53/28/27 
f 53/28/27 6/5/27 5/5/27 
f 53/28/28 51/26/28 50/27/28 
f 47/25/29 45/24/29 43/22/29 
f 43/22/30 41/23/30 39/20/30 
f 47/25/31 43/22/31 39/20/31 
f 50/27/32 47/25/32 39/20/32 
f 50/27/33 39/20/33 37/19/33 
f 53/28/34 50/27/34 37/19/34 
f 37/19/35 35/18/35 33/17/35 
f 37/19/35 33/17/35 31/16/35 
f 31/16/36 29/1/36 28/3/36 
f 31/16/36 28/3/36 27/15/36 
f 37/19/37 31/16/37 27/15/37 
f 27/15/38 25/14/38 23/13/38 
f 27/15/38 23/13/38 21/12/38 
f 21/12/39 19/11/39 17/10/39 
f 27/15/40 21/12/40 17/10/40 
f 17/10/41 15/9/41 13/8/41 
f 17/10/42 13/8/42 11/7/42 
f 27/15/43 17/10/43 11/7/43 
f 11/7/44 9/6/44 7/4/44 
f 27/15/45 11/7/45 7/4/45 
f 37/19/46 27/15/46 7/4/46 
f 53/28/47 37/19/47 7/4/47 
f 6/5/48 53/28/48 7/4/48 
f 54/29/49 55/30/50 56/31/51 
f 57/32/52 58/33/52 59/33/52 
f 59/33/52 60/32/52 57/32/52 
f 58/33/53 61/34/53 62/34/53 
f 62/34/53 59/33/53 58/33/53 
f 61/34/54 63/35/54 64/35/54 
f 64/35/54 62/34/54 61/34/54 
f 63/35/55 65/36/55 66/36/55 
f 66/36/55 64/35/55 63/35/55 
f 65/36/56 67/37/56 68/37/56 
f 68/37/56 66/36/56 65/36/56 
f 67/37/57 69/38/57 70/38/57 
f 70/38/57 68/37/57 67/37/57 
f 69/38/58 71/39/58 72/39/58 
f 72/39/58 70/38/58 69/38/58 
f 71/39/59 73/40/59 74/40/59 
f 74/40/59 72/39/59 71/39/59 
f 73/40/60 75/41/60 76/41/60 
f 76/41/60 74/40/60 73/40/60 
f 75/41/61 77/42/61 78/42/61 
f 78/42/61 76/41/61 75/41/61 
f 77/42/62 54/29/62 79/29/62 
f 79/29/62 78/42/62 77/42/62 
f 54/29/63 56/31/63 80/31/63 
f 80/31/63 79/29/63 54/29/63 
f 56/31/64 81/43/64 82/43/64 
f 82/43/64 80/31/64 56/31/64 
f 83/44/65 57/45/65 60/45/65 
f 60/45/65 84/44/65 83/44/65 
f 85/46/66 83/44/66 84/44/66 
f 84/44/66 86/46/66 85/46/66 
f 87/47/67 85/46/67 86/46/67 
f 86/46/67 88/47/67 87/47/67 
f 89/48/68 87/47/68 88/47/68 
f 88/47/68 90/48/68 89/48/68 
f 91/49/69 89/48/69 90/48/69 
f 90/48/69 92/49/69 91/49/69 
f 81/43/70 93/50/70 94/50/70 
f 94/50/70 82/43/70 81/43/70 
f 93/50/71 95/51/71 96/51/71 
f 96/51/71 94/50/71 93/50/71 
f 95/51/72 97/52/72 98/52/72 
f 98/52/72 96/51/72 95/51/72 
f 97/52/73 99/53/73 100/53/73 
f 100/53/73 98/52/73 97/52/73 
f 99/53/74 101/54/74 102/54/74 
f 102/54/74 100/53/74 99/53/74 
f 101/54/75 91/49/75 92/49/75 
f 92/49/75 102/54/75 101/54/75 
f 62/34/76 64/35/76 66/36/76 
f 62/34/77 66/36/77 68/37/77 
f 59/33/78 62/34/78 68/37/78 
f 68/37/79 70/38/79 72/39/79 
f 72/39/80 74/40/80 76/41/80 
f 68/37/81 72/39/81 76/41/81 
f 76/41/82 78/42/82 79/29/82 
f 76/41/83 79/29/83 80/31/83 
f 68/37/84 76/41/84 80/31/84 
f 59/33/85 68/37/85 80/31/85 
f 94/50/86 96/51/86 98/52/86 
f 82/43/87 94/50/87 98/52/87 
f 82/43/88 98/52/88 100/53/88 
f 80/31/89 82/43/89 100/53/89 
f 59/33/90 80/31/90 100/53/90 
f 100/53/91 102/54/91 92/49/91 
f 92/49/92 90/48/92 88/47/92 
f 100/53/93 92/49/93 88/47/93 
f 59/33/94 100/53/94 88/47/94 
f 59/33/95 88/47/95 86/46/95 
f 59/33/96 86/46/96 84/44/96 
f 59/33/97 84/44/97 60/45/97 
f 30/16/98 2/2/2 1/1/1 
f 30/16/98 103/55/99 2/2/2 
f 104/56/100 2/2/2 103/55/99 
f 2/2/2 104/56/100 26/15/101 
f 26/15/101 3/3/3 2/2/2 
f 30/16/98 32/17/102 103/55/99 
f 34/18/103 103/55/99 32/17/102 
f 105/57/104 103/55/99 34/18/103 
f 103/55/99 105/57/104 104/56/100 
f 91/49/105 104/56/100 105/57/104 
f 101/54/106 104/56/100 91/49/105 
f 97/52/107 104/56/100 101/54/106 
f 104/56/100 97/52/107 95/51/108 
f 26/15/101 104/56/100 95/51/108 
f 106/58/109 26/15/101 95/51/108 
f 106/58/109 24/14/110 26/15/101 
f 36/19/111 105/57/104 34/18/103 
f 36/19/111 107/59/112 105/57/104 
f 105/57/104 107/59/112 87/47/113 
f 89/48/114 105/57/104 87/47/113 
f 105/57/104 89/48/114 91/49/105 
f 36/19/111 108/60/115 107/59/112 
f 36/19/111 38/20/116 108/60/115 
f 40/21/117 108/60/115 38/20/116 
f 101/54/106 99/53/118 97/52/107 
f 107/59/112 57/45/119 87/47/113 
f 57/45/119 85/46/120 87/47/113 
f 57/45/119 83/44/121 85/46/120 
f 24/14/110 106/58/109 22/13/122 
f 20/12/123 22/13/122 106/58/109 
f 20/12/123 106/58/109 18/11/124 
f 106/58/109 109/61/125 18/11/124 
f 18/11/124 109/61/125 14/9/126 
f 16/10/127 18/11/124 14/9/126 
f 55/30/50 109/61/125 106/58/109 
f 109/61/125 55/30/50 77/42/82 
f 75/41/128 109/61/125 77/42/82 
f 75/41/128 8/6/129 109/61/125 
f 8/6/129 10/7/130 109/61/125 
f 10/7/130 12/8/131 109/61/125 
f 109/61/125 12/8/131 14/9/126 
f 106/58/109 110/62/132 55/30/50 
f 56/31/51 55/30/50 110/62/132 
f 110/62/132 81/43/133 56/31/51 
f 81/43/133 110/62/132 93/50/134 
f 93/50/134 110/62/132 106/58/109 
f 93/50/134 106/58/109 95/51/108 
f 55/30/50 54/29/49 77/42/82 
f 42/22/135 108/63/115 40/23/117 
f 42/22/135 111/64/136 108/63/115 
f 107/65/112 108/63/115 111/64/136 
f 111/64/136 112/66/137 107/65/112 
f 57/32/119 107/65/112 112/66/137 
f 112/66/137 58/33/138 57/32/119 
f 58/33/138 112/66/137 113/67/139 
f 113/67/139 61/34/140 58/33/138 
f 42/22/135 44/24/141 111/64/136 
f 48/26/142 111/64/136 44/24/141 
f 48/26/142 52/28/143 111/64/136 
f 112/66/137 111/64/136 52/28/143 
f 113/67/139 112/66/137 52/28/143 
f 49/27/144 48/26/142 44/24/141 
f 46/25/145 49/27/144 44/24/141 
f 5/5/146 113/67/139 52/28/143 
f 4/4/147 113/67/139 5/5/146 
f 4/4/147 114/68/148 113/67/139 
f 71/39/149 113/67/139 114/68/148 
f 71/39/149 69/38/150 113/67/139 
f 69/38/150 63/35/151 113/67/139 
f 63/35/151 61/34/140 113/67/139 
f 4/4/147 8/6/129 114/68/148 
f 75/41/128 114/68/148 8/6/129 
f 73/40/152 114/68/148 75/41/128 
f 71/39/149 114/68/148 73/40/152 
f 69/38/150 65/36/153 63/35/151 
f 67/37/84 65/36/153 69/38/150 
f 49/27/154 46/25/154 47/25/154 
f 47/25/154 50/27/154 49/27/154 
# 0 polygons - 224 triangles

